  0
SECTION
  2
HEADER
  9
$ACADVER
  1
AC1006
  9
$EXTMIN
 10
0.000000
 20
0.000000
 30
0.000000
  9
$EXTMAX
 10
827.000000
 20
682.000000
 30
0.000000
  0
ENDSEC
  0
SECTION
  2
ENTITIES
  0
POLYLINE
  8
0
 66
1
 70
1
  0
VERTEX
  8
0
 10
153.263349
 20
673.810755
 42
0.000482
  0
VERTEX
  8
0
 10
149.687421
 20
667.649296
 42
0.000007
  0
VERTEX
  8
0
 10
128.123027
 20
630.409255
 42
0.000019
  0
VERTEX
  8
0
 10
103.123235
 20
587.231451
 42
0.000012
  0
VERTEX
  8
0
 10
74.368231
 20
537.560755
 42
0.000000
  0
VERTEX
  8
0
 10
0.236462
 20
409.500000
 42
0.000000
  0
VERTEX
  8
0
 10
31.916006
 20
377.500000
 42
-0.000138
  0
VERTEX
  8
0
 10
47.414385
 20
361.836206
 42
-0.000057
  0
VERTEX
  8
0
 10
68.430066
 20
340.579687
 42
-0.000056
  0
VERTEX
  8
0
 10
90.983541
 20
317.757470
 42
-0.000072
  0
VERTEX
  8
0
 10
111.733022
 20
296.750000
 42
0.000000
  0
VERTEX
  8
0
 10
159.870494
 20
248.000000
 42
0.000000
  0
VERTEX
  8
0
 10
179.435247
 20
248.000000
 42
0.000000
  0
VERTEX
  8
0
 10
199.000000
 20
248.000000
 42
0.000000
  0
VERTEX
  8
0
 10
199.000000
 20
185.256149
 42
0.000000
  0
VERTEX
  8
0
 10
199.000000
 20
122.512298
 42
0.000000
  0
VERTEX
  8
0
 10
228.743750
 20
92.756149
 42
0.000000
  0
VERTEX
  8
0
 10
258.487499
 20
63.000000
 42
0.000000
  0
VERTEX
  8
0
 10
274.854102
 20
63.000000
 42
0.000000
  0
VERTEX
  8
0
 10
291.220705
 20
63.000000
 42
0.000000
  0
VERTEX
  8
0
 10
335.744500
 20
31.500000
 42
0.000000
  0
VERTEX
  8
0
 10
380.268296
 20
0.000000
 42
0.000000
  0
VERTEX
  8
0
 10
412.497640
 20
0.000000
 42
0.000000
  0
VERTEX
  8
0
 10
444.726984
 20
-0.000000
 42
0.000000
  0
VERTEX
  8
0
 10
486.967856
 20
31.000000
 42
0.000000
  0
VERTEX
  8
0
 10
529.208728
 20
62.000000
 42
0.000000
  0
VERTEX
  8
0
 10
546.860614
 20
62.000000
 42
0.000000
  0
VERTEX
  8
0
 10
564.512501
 20
62.000000
 42
0.000000
  0
VERTEX
  8
0
 10
594.256250
 20
91.756149
 42
0.000000
  0
VERTEX
  8
0
 10
624.000000
 20
121.512298
 42
0.000000
  0
VERTEX
  8
0
 10
624.000000
 20
185.256149
 42
0.000000
  0
VERTEX
  8
0
 10
624.000000
 20
249.000000
 42
0.000000
  0
VERTEX
  8
0
 10
645.752359
 20
249.000000
 42
0.000000
  0
VERTEX
  8
0
 10
667.504717
 20
249.000000
 42
0.000000
  0
VERTEX
  8
0
 10
746.934432
 20
328.434428
 42
0.000484
  0
VERTEX
  8
0
 10
792.395677
 20
373.986431
 42
0.004115
  0
VERTEX
  8
0
 10
812.616133
 20
394.623435
 42
0.002601
  0
VERTEX
  8
0
 10
825.075301
 20
407.685689
 42
0.306787
  0
VERTEX
  8
0
 10
825.432073
 20
409.879323
 42
0.022097
  0
VERTEX
  8
0
 10
824.608254
 20
411.468319
 42
0.000017
  0
VERTEX
  8
0
 10
801.861297
 20
450.965512
 42
0.000195
  0
VERTEX
  8
0
 10
776.472249
 20
495.007236
 42
0.000119
  0
VERTEX
  8
0
 10
746.500000
 20
546.923991
 42
0.000000
  0
VERTEX
  8
0
 10
668.500000
 20
681.958192
 42
0.000000
  0
VERTEX
  8
0
 10
413.263349
 20
681.979096
 42
0.000000
  0
VERTEX
  8
0
 10
158.026698
 20
682.000000
 42
0.000000
  0
SEQEND
  0
ENDSEC
  0
EOF
