  0
SECTION
  2
HEADER
  9
$ACADVER
  1
AC1006
  9
$EXTMIN
 10
0.000000
 20
0.000000
 30
0.000000
  9
$EXTMAX
 10
687.000000
 20
567.000000
 30
0.000000
  0
ENDSEC
  0
SECTION
  2
ENTITIES
  0
POLYLINE
  8
0
 66
1
 70
1
  0
VERTEX
  8
0
 10
66.119270
 20
454.252310
 42
0.000427
  0
VERTEX
  8
0
 10
41.146856
 20
410.948026
 42
0.000705
  0
VERTEX
  8
0
 10
20.138997
 20
374.327241
 42
0.000034
  0
VERTEX
  8
0
 10
1.237044
 20
341.264276
 42
0.157904
  0
VERTEX
  8
0
 10
1.077292
 20
340.500000
 42
0.167757
  0
VERTEX
  8
0
 10
1.405964
 20
339.801100
 42
0.000070
  0
VERTEX
  8
0
 10
20.293303
 20
320.406250
 42
0.001041
  0
VERTEX
  8
0
 10
41.352013
 20
298.877624
 42
0.000632
  0
VERTEX
  8
0
 10
66.342434
 20
273.500000
 42
0.000000
  0
VERTEX
  8
0
 10
131.500000
 20
207.500000
 42
0.000000
  0
VERTEX
  8
0
 10
148.500000
 20
207.000000
 42
0.000000
  0
VERTEX
  8
0
 10
165.500000
 20
206.500000
 42
0.000000
  0
VERTEX
  8
0
 10
165.758478
 20
153.500000
 42
0.000000
  0
VERTEX
  8
0
 10
166.016956
 20
100.500000
 42
0.000000
  0
VERTEX
  8
0
 10
190.250824
 20
76.250000
 42
0.000000
  0
VERTEX
  8
0
 10
214.484692
 20
52.000000
 42
0.000000
  0
VERTEX
  8
0
 10
228.508703
 20
52.000000
 42
0.000000
  0
VERTEX
  8
0
 10
242.532713
 20
52.000000
 42
0.000000
  0
VERTEX
  8
0
 10
279.232054
 20
26.000000
 42
0.000000
  0
VERTEX
  8
0
 10
315.931395
 20
0.000000
 42
0.000000
  0
VERTEX
  8
0
 10
342.715698
 20
0.018858
 42
0.000000
  0
VERTEX
  8
0
 10
369.500000
 20
0.037716
 42
0.000000
  0
VERTEX
  8
0
 10
404.853962
 20
26.018858
 42
0.000000
  0
VERTEX
  8
0
 10
440.207923
 20
52.000000
 42
0.000000
  0
VERTEX
  8
0
 10
454.361462
 20
52.000000
 42
0.000000
  0
VERTEX
  8
0
 10
468.515001
 20
52.000000
 42
0.000000
  0
VERTEX
  8
0
 10
493.257501
 20
76.757355
 42
0.000000
  0
VERTEX
  8
0
 10
518.000000
 20
101.514710
 42
0.000000
  0
VERTEX
  8
0
 10
518.000000
 20
154.257355
 42
0.000000
  0
VERTEX
  8
0
 10
518.000000
 20
207.000000
 42
0.000000
  0
VERTEX
  8
0
 10
536.252841
 20
207.000000
 42
0.000000
  0
VERTEX
  8
0
 10
554.505682
 20
207.000000
 42
0.000000
  0
VERTEX
  8
0
 10
620.500734
 20
273.000734
 42
0.000000
  0
VERTEX
  8
0
 10
686.495787
 20
339.001469
 42
0.000000
  0
VERTEX
  8
0
 10
684.223165
 20
343.250734
 42
0.007814
  0
VERTEX
  8
0
 10
682.397152
 20
346.540282
 42
0.000041
  0
VERTEX
  8
0
 10
664.041398
 20
378.417403
 42
0.000183
  0
VERTEX
  8
0
 10
643.115709
 20
414.719877
 42
0.000116
  0
VERTEX
  8
0
 10
618.710619
 20
457.000000
 42
0.000000
  0
VERTEX
  8
0
 10
555.470694
 20
566.500000
 42
0.000000
  0
VERTEX
  8
0
 10
343.369759
 20
566.752310
 42
0.000000
  0
VERTEX
  8
0
 10
131.268825
 20
567.004621
 42
0.000000
  0
SEQEND
  0
ENDSEC
  0
EOF
